<svg width="50" height="66" viewBox="0 0 50 66" fill="none" xmlns="http://www.w3.org/2000/svg">
<path d="M25 65.2024C26.8944 65.2024 28.7112 64.3438 30.0508 62.8154C31.3903 61.287 32.1429 59.214 32.1429 57.0526H17.8571C17.8571 59.214 18.6097 61.287 19.9492 62.8154C21.2888 64.3438 23.1056 65.2024 25 65.2024ZM25 7.81928L22.1536 8.47534C18.9249 9.22594 16.0226 11.2263 13.938 14.138C11.8535 17.0496 10.7146 20.6935 10.7143 24.4531C10.7143 27.0122 10.2357 33.4057 9.075 39.7015C8.50357 42.827 7.73214 46.0828 6.70714 48.9027H43.2929C42.2679 46.0828 41.5 42.8311 40.925 39.7015C39.7643 33.4057 39.2857 27.0122 39.2857 24.4531C39.2845 20.6942 38.1453 17.0512 36.0608 14.1404C33.9763 11.2297 31.0745 9.22988 27.8464 8.47941L25 7.8152V7.81928ZM47.2143 48.9027C48.0107 50.7242 48.9321 52.1667 50 52.9776H0C1.06786 52.1667 1.98929 50.7242 2.78571 48.9027C6 41.5678 7.14286 28.0391 7.14286 24.4531C7.14286 14.5918 13.2857 6.36045 21.4464 4.48191C21.3966 3.91531 21.4514 3.34308 21.6073 2.80212C21.7632 2.26116 22.0167 1.76348 22.3515 1.34119C22.6863 0.918902 23.095 0.581368 23.5512 0.35036C24.0074 0.119353 24.5009 0 25 0C25.4991 0 25.9926 0.119353 26.4488 0.35036C26.905 0.581368 27.3137 0.918902 27.6485 1.34119C27.9833 1.76348 28.2368 2.26116 28.3927 2.80212C28.5486 3.34308 28.6034 3.91531 28.5536 4.48191C32.5903 5.41874 36.2192 7.91854 38.8258 11.558C41.4325 15.1975 42.8566 19.753 42.8571 24.4531C42.8571 28.0391 44 41.5678 47.2143 48.9027Z" fill="#7F8DA1"/>
</svg>
